<svg width="56" height="56" viewBox="0 0 56 56" fill="none" xmlns="http://www.w3.org/2000/svg">
<path d="M54.6393 6.72881C54.2701 6.64293 53.8822 6.75444 53.6156 7.02361L49.0812 11.5939H46.9074L44.5144 9.11455V6.91039L48.9838 2.37431C49.2483 2.106 49.3559 1.7202 49.2683 1.35319C49.1812 0.986616 48.9112 0.690961 48.554 0.570478C47.4312 0.191937 46.2563 0.000103766 45.0612 0.000103766C41.4989 0.000103766 38.2625 1.66124 36.1818 4.55754C34.2344 7.26885 33.6341 10.5915 34.4942 13.7715L26.4376 21.8281L13.0152 8.37499V5.7346C13.0152 5.35051 12.8135 4.99419 12.4841 4.7968L4.75055 0.156049C4.31989 -0.102435 3.76917 -0.0345032 3.41455 0.320539L0.321289 3.41337C-0.0333253 3.76842 -0.101257 4.31914 0.156799 4.7498L4.7967 12.4834C4.99408 12.8128 5.34998 13.014 5.73407 13.0145L8.3736 13.0153L21.7973 26.4684L13.7714 34.4943C10.5914 33.6346 7.26703 34.2358 4.55445 36.1845C1.65985 38.2639 0 41.4994 0 45.0618C0 46.2564 0.191834 47.4317 0.570374 48.5541C0.691285 48.9134 0.98993 49.1847 1.35907 49.2702C1.72864 49.356 2.11615 49.2445 2.38318 48.9754L6.91712 44.4055H9.10291L11.5933 46.8959V49.0817L7.0235 53.6157C6.75434 53.8827 6.64283 54.2702 6.7287 54.6398C6.81415 55.0089 7.08545 55.3076 7.44477 55.4285C8.56714 55.807 9.7425 55.9989 10.9371 55.9989C14.4995 55.9989 17.7346 54.3386 19.8144 51.444C21.7631 48.7314 22.3642 45.4074 21.5046 42.2274L27.9505 35.7816L29.427 37.3854L28.7494 38.0626C28.3222 38.4899 28.3222 39.1824 28.7494 39.6097C29.1767 40.0365 29.8688 40.0365 30.2965 39.6097L30.91 38.9962L44.7639 54.0446C44.7741 54.0557 44.7848 54.0664 44.7955 54.0771C47.359 56.6406 51.5122 56.6414 54.077 54.0767C56.6345 51.5179 56.6345 47.3544 54.077 44.7956C54.0659 44.7845 54.0544 44.7738 54.0428 44.7631L38.9709 30.9357L39.5775 30.329C40.0048 29.9022 40.0048 29.2097 39.5775 28.7824C39.1503 28.3552 38.4582 28.3552 38.0305 28.7824L37.3576 29.4557L35.7507 27.9809L42.2278 21.5038C43.1485 21.7499 44.0987 21.8747 45.0612 21.8747C51.0923 21.8747 55.9983 16.9682 55.9983 10.9376C55.9983 9.7426 55.8065 8.56767 55.428 7.44487C55.307 7.08556 55.0084 6.81426 54.6393 6.72881ZM9.60151 11.1491C9.39643 10.9436 9.11829 10.8389 8.82776 10.8389L6.35401 10.8381L2.47205 4.35673L4.35749 2.4713L10.8277 6.35411V8.82787C10.8277 9.11754 10.9426 9.39525 11.1473 9.60033L24.8909 23.3752L23.3439 24.9218L9.60151 11.1491ZM37.4225 32.4841L52.5457 46.358C54.2351 48.0653 54.23 50.8296 52.5299 52.5305C50.8261 54.2343 48.0678 54.2395 46.3571 52.5454L32.4579 37.4478L37.4225 32.4841ZM35.8092 31.0037L30.9749 35.8371L29.4984 34.2332L34.2024 29.5288L35.8092 31.0037ZM45.0612 19.6872C44.1046 19.6872 43.1638 19.5338 42.2658 19.2313C41.8723 19.0993 41.4373 19.201 41.1434 19.4945C35.6601 24.9778 23.845 36.7924 19.4944 41.1435C19.2005 41.4374 19.0983 41.8724 19.2312 42.2663C20.1404 44.9661 19.7055 47.8457 18.0375 50.1678C16.3742 52.483 13.786 53.8114 10.9371 53.8114C10.6171 53.8114 10.2988 53.7938 9.98347 53.7601L13.4574 50.3131C13.6642 50.108 13.7808 49.8286 13.7808 49.5368V46.4426C13.7808 46.1525 13.6655 45.8744 13.4604 45.6693L10.3291 42.538C10.124 42.333 9.84589 42.2176 9.55579 42.2176H6.46167C6.16987 42.2176 5.89045 42.3342 5.68494 42.541L2.23834 46.015C2.20416 45.6997 2.18707 45.3814 2.18707 45.0613C2.18707 42.212 3.51496 39.6242 5.83063 37.9609C8.15229 36.293 11.0324 35.8576 13.7326 36.7672C14.126 36.9001 14.561 36.798 14.8549 36.504C14.9152 36.4442 36.4886 14.8704 36.5039 14.855C36.7979 14.5611 36.8996 14.1266 36.7671 13.7327C35.8575 11.0329 36.2916 8.1541 37.9583 5.83373C39.6228 3.51634 42.2115 2.18761 45.0608 2.18761C45.3907 2.18761 45.7184 2.20598 46.0431 2.24187L42.6413 5.69444C42.4397 5.89909 42.3269 6.17467 42.3269 6.46178V9.5559C42.3269 9.83959 42.4367 10.1117 42.6336 10.3155L45.6555 13.4468C45.8615 13.6605 46.1456 13.7809 46.4425 13.7809H49.5367C49.828 13.7809 50.1075 13.6647 50.313 13.4575L53.7596 9.984C53.7937 10.2993 53.8108 10.6176 53.8108 10.9376C53.8108 15.7621 49.8857 19.6872 45.0612 19.6872Z" fill="#071F41"/>
</svg>
